<svg width="100%" viewBox="0 0 120 130" enable-background="new 0 0 120 130">

<path fill="#FFF" opacity="1.000000" stroke="none" 
	d="
M63.375000,131.000000 
	C62.953331,111.534737 62.845589,92.069077 62.974873,72.604980 
	C62.985325,71.032341 64.224617,68.792358 65.564041,68.006714 
	C82.168007,58.267635 98.896591,48.741028 116.038391,38.904175 
	C116.248413,40.266376 116.544830,41.298744 116.546410,42.331558 
	C116.574142,60.468258 116.495354,78.605560 116.637009,96.741196 
	C116.659752,99.653923 115.668755,101.155380 113.186867,102.555618 
	C98.736420,110.708305 84.383072,119.033356 70.016197,127.333527 
	C68.449150,128.238846 67.005356,129.357529 65.752197,130.688629 
	C65.250000,131.000000 64.500000,131.000000 63.375000,131.000000 
z"/>
<path fill="#FFF" opacity="1.000000" stroke="none" 
	d="
M1.000000,39.468658 
	C17.992819,48.686436 35.031548,58.294647 51.899498,68.193848 
	C53.401588,69.075371 54.560982,71.839706 54.582409,73.744194 
	C54.793724,92.525330 54.730568,111.309563 54.872612,130.546448 
	C53.933331,131.000000 52.866661,131.000000 51.685162,130.709122 
	C51.249779,130.049866 50.998550,129.561584 50.598682,129.330414 
	C34.746639,120.165848 18.886028,111.016029 2.994138,101.920891 
	C2.504795,101.640839 1.672440,101.960129 1.000000,102.000000 
	C1.000000,81.312439 1.000000,60.624878 1.000000,39.468658 
z"/>
<path fill="#FFF" opacity="1.000000" stroke="none" 
	d="
M61.562500,1.000000 
	C63.001648,2.090286 63.812111,3.508434 65.034035,4.220978 
	C79.948647,12.918166 94.924339,21.510614 109.880547,30.136541 
	C110.451950,30.466097 110.986526,30.859503 112.180984,31.646776 
	C104.490623,36.097401 97.149933,40.358032 89.797203,44.597786 
	C80.449013,49.988174 71.138107,55.447037 61.687767,60.652428 
	C60.232502,61.454006 57.681881,61.831303 56.372467,61.096218 
	C39.585087,51.672020 22.930588,42.011086 6.252213,32.393162 
	C5.992847,32.243587 5.857287,31.879328 5.404087,31.260321 
	C17.048393,24.554562 28.683012,17.933992 40.232162,11.167547 
	C45.470985,8.098215 50.540325,4.739601 55.343273,1.256108 
	C57.041668,1.000000 59.083332,1.000000 61.562500,1.000000 
z"/>
</svg>