<svg width="100%" viewBox="0 0 4267 4267" enable-background="new 0 0 4267 4267">
<path fill="#FFFFFF" opacity="1.000000" stroke="none" 
	d="
M1990.765137,4100.892578 
	C1835.417725,4090.596680 1685.105835,4063.331299 1538.259277,4017.285889 
	C1303.883057,3943.795166 1093.526855,3826.410889 904.541504,3670.148193 
	C773.022034,3561.401367 655.473206,3439.137939 552.803833,3302.780273 
	C431.270782,3141.369141 337.499847,2965.158691 273.416382,2773.419678 
	C241.285400,2677.282959 217.517410,2578.991943 201.302841,2478.949219 
	C193.419113,2430.307373 187.547943,2381.386475 183.159302,2332.258789 
	C177.227234,2265.853271 174.702988,2199.353516 174.834946,2132.730469 
	C174.986725,2056.097168 179.039322,1979.692993 187.298691,1903.458862 
	C201.619476,1771.277710 228.719345,1641.893799 269.873169,1515.464111 
	C351.057220,1266.056030 482.110626,1045.419922 655.162781,849.197937 
	C771.136841,717.696350 900.377869,600.924255 1044.990356,501.457764 
	C1227.848267,375.685364 1426.560669,285.004517 1642.024536,231.181076 
	C1720.289307,211.630295 1799.403687,197.097855 1879.455444,187.193420 
	C1941.635010,179.500229 2004.026489,174.282333 2066.584717,172.700912 
	C2123.842285,171.253479 2181.225586,171.231232 2238.457520,173.271652 
	C2298.318359,175.405807 2358.072510,180.704849 2417.526611,188.510757 
	C2612.973633,214.171478 2800.482178,267.106995 2978.934814,351.450714 
	C3154.992188,434.662109 3313.491943,543.833923 3457.247314,674.700562 
	C3571.447998,778.662231 3674.314697,892.827087 3763.775879,1018.889893 
	C3905.424072,1218.490479 4003.905762,1437.525391 4059.012207,1675.946167 
	C4076.419678,1751.259521 4088.668457,1827.487427 4096.992188,1904.397339 
	C4106.253418,1989.966919 4109.892090,2075.726562 4109.250488,2161.735107 
	C4108.773438,2225.720947 4105.607910,2289.579102 4099.265625,2353.233398 
	C4075.513184,2591.623535 4011.760010,2818.425781 3901.788086,3031.746338 
	C3827.819580,3175.228760 3736.459961,3306.789062 3629.683105,3427.701904 
	C3508.221191,3565.243652 3372.692139,3686.905273 3220.133057,3789.253662 
	C3042.031738,3908.736816 2849.011475,3994.828369 2641.004883,4046.948242 
	C2566.694092,4065.568115 2491.415283,4079.458984 2415.320068,4088.931641 
	C2341.228027,4098.154297 2266.996338,4104.711426 2192.276367,4105.059570 
	C2172.968262,4105.149414 2153.638916,4106.912109 2134.362305,4106.373047 
	C2087.105469,4105.052246 2039.873657,4102.836914 1990.765137,4100.892578 
M2474.000244,1039.361328 
	C2190.042480,1039.624756 1906.084839,1039.887451 1622.127197,1040.205688 
	C1621.624756,1040.206177 1621.123291,1041.028931 1620.616089,1041.465454 
	C1620.148804,1042.626831 1619.272339,1043.788208 1619.272217,1044.949585 
	C1619.196533,1788.246948 1619.179565,2531.544189 1619.181396,3274.841553 
	C1619.181396,3275.489746 1619.348877,3276.208496 1619.664307,3276.766113 
	C1619.966064,3277.299561 1620.563354,3277.665771 1622.396973,3279.390869 
	C1628.174927,3279.464844 1635.390381,3279.637695 1642.605713,3279.638428 
	C1797.935913,3279.654053 1953.265991,3279.650391 2108.596191,3279.650146 
	C2171.928223,3279.650146 2235.260254,3279.678711 2298.592285,3279.594238 
	C2303.666992,3279.587402 2308.740479,3278.795410 2315.079834,3278.261719 
	C2315.079834,3269.123779 2315.079834,3261.222656 2315.079834,3253.321533 
	C2315.079834,2959.994141 2315.080078,2666.666748 2315.080566,2373.339355 
	C2315.080566,2367.339355 2314.908203,2361.332275 2315.153809,2355.342285 
	C2315.306152,2351.627686 2316.096436,2347.939209 2316.687744,2343.597168 
	C2325.173584,2343.597168 2332.443604,2343.597168 2339.713379,2343.597168 
	C2560.375488,2343.597168 2781.037598,2343.597412 3001.699707,2343.596436 
	C3007.699707,2343.596436 3013.707275,2343.758057 3019.695312,2343.487061 
	C3021.814941,2343.391357 3023.886230,2342.228760 3027.474121,2341.070557 
	C3021.208252,2335.133057 3016.487061,2330.493652 3011.592773,2326.044922 
	C2848.896484,2178.162598 2686.171387,2030.311523 2523.478271,1882.425903 
	C2457.911133,1822.826172 2392.386963,1763.178711 2326.921143,1703.467651 
	C2322.725586,1699.640869 2316.708496,1696.903564 2316.621826,1689.330811 
	C2531.339844,1474.436401 2746.191650,1259.408691 2961.032471,1044.370239 
	C2961.470703,1043.931274 2962.000488,1043.352051 2962.038330,1042.807251 
	C2962.079834,1042.211182 2961.598633,1041.578735 2960.687500,1039.363037 
	C2800.233643,1039.359619 2639.117188,1039.362061 2474.000244,1039.361328 
z"/>
<title>Fusion360 icon</title>
</svg>