<svg width="100%" viewBox="0 0 4500 4500" enable-background="new 0 0 4500 4500">
<path fill="#FDFDFD" opacity="1.000000" stroke="none" 
	d="
M2383.998779,3322.356445 
	C1986.167358,3322.356445 1590.336060,3322.356445 1193.158081,3322.356445 
	C1192.635498,3317.321533 1192.064941,3313.603516 1191.908569,3309.868164 
	C1191.713623,3305.210205 1191.859497,3300.538330 1191.859497,3295.872314 
	C1191.859375,2601.985596 1191.858521,1908.098755 1191.869995,1214.212036 
	C1191.870239,1206.352783 1192.031738,1198.493652 1192.102905,1192.009521 
	C1194.089844,1190.262451 1194.535889,1189.722900 1195.106445,1189.410522 
	C1195.655518,1189.109985 1196.333496,1188.896729 1196.954712,1188.896606 
	C1903.500732,1188.780518 2610.046875,1188.684937 3316.592773,1188.627686 
	C3318.489502,1188.627563 3320.386230,1189.192871 3323.709717,1189.720459 
	C3324.112793,1193.460571 3324.707031,1197.194824 3324.871094,1200.947876 
	C3325.074951,1205.604980 3324.924072,1210.277588 3324.924072,1214.943481 
	C3324.924072,1908.830200 3324.925049,2602.717041 3324.920654,3296.603760 
	C3324.920654,3304.504395 3324.859375,3312.405029 3324.829834,3319.545410 
	C3322.186279,3320.895752 3321.013184,3322.019775 3319.839600,3322.020264 
	C3008.559326,3322.183838 2697.279297,3322.269287 2383.998779,3322.356445 
M1748.720337,1555.284302 
	C1757.007568,1528.328003 1768.265137,1502.899658 1786.712402,1481.141968 
	C1788.407349,1479.142578 1790.000610,1476.900024 1786.474365,1473.189209 
	C1783.000000,1473.189209 1778.444092,1473.189209 1773.888184,1473.189209 
	C1745.224243,1473.189209 1716.560303,1473.189209 1687.896362,1473.189209 
	C1559.908691,1473.189209 1431.920898,1473.158081 1303.933350,1473.312012 
	C1299.187500,1473.317749 1293.502930,1470.968994 1289.643555,1476.016602 
	C1289.969849,1477.026733 1290.032593,1477.764160 1290.404541,1478.277466 
	C1291.959351,1480.423584 1293.464966,1482.631592 1295.241699,1484.586792 
	C1328.645874,1521.347778 1343.693726,1565.031128 1344.390503,1614.207764 
	C1344.683228,1634.863892 1345.633057,1655.515747 1345.637085,1676.169800 
	C1345.713867,2067.465576 1345.693237,2458.761230 1345.695801,2850.057129 
	C1345.695801,2856.722900 1345.862061,2863.391602 1345.727051,2870.054199 
	C1345.120361,2900.021484 1345.368530,2930.044434 1343.535645,2959.938721 
	C1341.286499,2996.623047 1329.441162,3030.282471 1306.594849,3059.587158 
	C1302.498901,3064.841064 1298.159668,3069.908691 1294.160889,3075.233154 
	C1292.354370,3077.638672 1288.745605,3079.401367 1290.868774,3084.887695 
	C1296.870728,3084.887695 1303.369873,3084.887695 1309.868896,3084.887695 
	C1463.187500,3084.887695 1616.506104,3084.887451 1769.824707,3084.886719 
	C1773.824341,3084.886719 1777.828003,3084.985107 1781.822266,3084.835449 
	C1784.887573,3084.720703 1788.683472,3085.798828 1789.643433,3080.736816 
	C1764.912842,3052.583496 1751.885132,3018.752441 1743.757935,2982.532715 
	C1736.420288,2949.832764 1733.553345,2916.584473 1733.432129,2883.301514 
	C1732.912964,2740.650391 1733.200928,2597.996338 1733.278809,2455.343506 
	C1733.280151,2453.003906 1731.899048,2449.997559 1735.757080,2447.992676 
	C1741.511719,2449.970459 1743.659180,2455.918457 1746.975830,2460.434082 
	C1840.854126,2588.249268 1934.545288,2716.201904 2028.476196,2843.978271 
	C2052.189453,2876.236084 2073.694336,2909.907227 2093.708252,2944.500977 
	C2102.671143,2959.992920 2110.468750,2976.325928 2117.121582,2992.947266 
	C2126.674072,3016.813721 2130.059082,3041.758057 2125.255127,3067.435059 
	C2124.306641,3072.504150 2124.196045,3077.729980 2123.705566,3082.814941 
	C2140.201172,3085.542969 2457.863037,3086.698486 2658.033936,3084.823486 
	C2662.389648,3084.782715 2667.170410,3086.368408 2671.004639,3082.973389 
	C2672.033691,3079.206055 2668.740479,3078.259033 2667.038818,3076.903320 
	C2645.580078,3059.806152 2626.629395,3040.148193 2608.324219,3019.830078 
	C2572.152832,2979.681396 2538.552002,2937.439453 2506.791016,2893.753662 
	C2350.844727,2679.255615 2195.017334,2464.670898 2039.160522,2250.107666 
	C2035.278442,2244.763428 2031.543091,2239.312500 2027.376465,2233.395996 
	C2031.197632,2228.328125 2034.644043,2223.493896 2038.355469,2218.872559 
	C2193.602539,2025.576172 2348.868164,1832.294922 2504.143555,1639.021729 
	C2551.886230,1579.595947 2602.724365,1523.315674 2666.255127,1479.983398 
	C2668.815674,1478.237061 2669.751709,1476.285034 2667.918457,1473.504517 
	C2491.958252,1473.504517 2315.998047,1473.503662 2140.037842,1473.535522 
	C2139.420654,1473.535645 2138.757324,1473.934326 2138.199951,1474.281738 
	C2137.697510,1474.594849 2137.310791,1475.093628 2136.870850,1475.510254 
	C2136.665039,1476.795654 2135.986328,1478.223022 2136.322998,1479.345703 
	C2143.600098,1503.602905 2138.753174,1526.886108 2130.445312,1549.760132 
	C2122.450439,1571.771851 2111.595459,1592.501587 2098.320068,1611.681396 
	C2078.234375,1640.700317 2057.911621,1669.625610 2036.238281,1697.460815 
	C1983.422852,1765.291626 1929.779419,1832.477783 1876.457642,1899.914307 
	C1832.642456,1955.327637 1788.840698,2010.751587 1744.910889,2066.073730 
	C1742.300659,2069.360840 1741.122681,2074.892578 1733.507080,2074.143311 
	C1733.211304,2071.395996 1733.207397,2068.238037 1733.207397,2065.078369 
	C1733.206665,1935.090820 1732.851196,1805.101807 1733.418823,1675.116821 
	C1733.590698,1635.792480 1737.157349,1596.585571 1748.720337,1555.284302 
M2810.920410,2153.999512 
	C2810.920410,2404.642334 2810.995850,2655.285156 2810.798584,2905.927979 
	C2810.779541,2929.886230 2809.626953,2953.882080 2807.993164,2977.791504 
	C2805.622314,3012.491455 2794.963623,3044.272949 2772.315430,3071.423340 
	C2769.543213,3074.746582 2765.500244,3077.635742 2765.469727,3082.774170 
	C2784.368652,3085.763916 3058.072266,3086.947754 3220.722900,3084.705078 
	C3224.428711,3084.654053 3228.591309,3086.029541 3232.310791,3081.937500 
	C3231.022949,3075.499756 3225.431396,3071.394287 3221.702881,3066.296875 
	C3204.830811,3043.228516 3193.551514,3017.959229 3191.327881,2989.258057 
	C3189.682617,2968.025391 3187.831299,2946.730225 3187.815674,2925.461670 
	C3187.569092,2594.160645 3187.607178,2262.859375 3187.579590,1931.558228 
	C3187.579102,1925.558838 3187.704834,1919.555542 3187.528320,1913.561279 
	C3187.416748,1909.770264 3186.852295,1905.992676 3186.554688,1902.876709 
	C3183.955566,1901.875610 3182.760986,1901.013184 3181.566162,1901.012329 
	C3044.253906,1900.915161 2906.941895,1900.881592 2769.629639,1900.855835 
	C2768.968262,1900.855713 2768.187012,1900.826660 2767.680176,1901.151733 
	C2767.193848,1901.463745 2766.991943,1902.219727 2765.938965,1904.026001 
	C2769.272949,1908.743408 2772.887451,1914.070801 2776.716553,1919.239136 
	C2793.736816,1942.215088 2804.470459,1967.907471 2807.577881,1996.230835 
	C2809.898438,2017.379395 2810.898926,2038.737183 2811.247803,2060.022217 
	C2811.739502,2090.004639 2811.084717,2120.005859 2810.920410,2153.999512 
M2805.959473,1452.378906 
	C2782.873047,1498.778931 2777.012207,1547.414917 2787.662598,1597.983032 
	C2812.760498,1717.147827 2930.193359,1781.639038 3030.940674,1765.217163 
	C3153.188721,1745.290771 3242.939209,1626.096680 3207.834473,1494.386963 
	C3179.178467,1386.872314 3068.616455,1317.000244 2958.125244,1338.961670 
	C2890.913574,1352.320923 2840.506836,1389.502441 2805.959473,1452.378906 
z"/>
</svg>