<svg enable-background="new 0 0 512 512" height="512" viewBox="0 0 512 512" width="512" xmlns="http://www.w3.org/2000/svg"><path clip-rule="evenodd" d="m55.704 499.013c.082-.158.925-1.752 5.251-7.704 8.558-11.79 21.405-20.608 25.638-23.336l87.14-10.979c-7.754 7.46-13.905 16.777 1.123 18.68 65.263 8.235 162.189-28.477 200.286-44.379l.077.888 70.053-6.256c-33.935 17.05-119.062 50.789-302.894 80.874-81.813 13.389-87.59-6.064-87.655-6.213m89.858-500.088 70.877 8.266 244.397 398.478-74.336 6.635-40.14-70.836-154.282 9.476-4.882 85.457-92.752 11.682zm49.224 273.523 108.265-2.709-100.146-175.932h-2.707zm-118.321 180.53 51.032-448.409c-.256.743-.379 1.268-.379 1.268l-73.992 467.327c8.458-9.565 18.137-16.704 23.339-20.186z" fill-rule="evenodd"/></svg>