<svg width="100%" viewBox="0 0 800 800" enable-background="new 0 0 800 800">
<path fill="#FFF" opacity="1.000000" stroke="none" 
	d="
M309.250946,254.749603 
	C338.838440,282.999023 368.158905,311.015259 397.520142,338.988708 
	C409.420227,350.326294 421.422241,361.556793 433.353027,372.862274 
	C440.590668,379.720520 447.650665,386.772980 455.045898,393.455475 
	C458.860413,396.902344 458.844818,399.906036 455.560059,403.508026 
	C447.972107,411.828979 440.448456,420.208679 432.920380,428.584045 
	C421.406708,441.393616 409.888947,454.199799 398.439819,467.066925 
	C397.186432,468.475555 396.372131,470.274933 395.418701,471.790497 
	C390.935516,470.501221 386.382965,469.443604 382.054504,467.796936 
	C380.721985,467.290070 379.218170,465.223755 379.127930,463.787628 
	C378.545471,454.520630 378.336792,445.230255 377.997711,435.947845 
	C377.804688,430.663910 374.695038,426.819580 368.995422,425.025421 
	C360.363037,422.308075 351.664642,419.791199 343.098694,416.881927 
	C341.779907,416.434021 340.220581,414.397430 340.129059,413.006348 
	C339.541595,404.077606 339.331512,395.124023 338.999481,386.178528 
	C338.806824,380.986755 335.613312,376.543915 330.527863,374.854645 
	C322.401093,372.155212 314.249908,369.519989 306.049133,367.057098 
	C302.540253,366.003296 301.004944,364.055176 300.940582,360.339325 
	C300.791565,351.738037 300.535797,343.127502 299.921356,334.549500 
	C299.559021,329.491180 296.798798,325.650116 291.788330,324.042114 
	C284.099060,321.574402 276.366272,319.232117 268.600586,317.016693 
	C263.936035,315.686005 261.707031,313.293579 261.856598,307.997528 
	C262.076355,300.215759 261.198303,292.408386 261.103760,284.608093 
	C261.082947,282.888855 261.955688,280.747803 263.145325,279.489685 
	C272.853455,269.222626 282.711548,259.096680 292.574127,248.976639 
	C296.619904,244.825241 299.101013,244.841583 303.327820,248.870956 
	C305.255402,250.708496 307.111694,252.620834 309.250946,254.749603 
M371.150726,344.685455 
	C374.542572,345.600525 377.338135,344.440979 377.862305,341.081116 
	C378.185150,339.011597 377.292236,335.970490 375.812897,334.522003 
	C360.034363,319.072235 344.041382,303.841187 328.073730,288.585236 
	C325.524109,286.149231 322.684479,284.420044 319.611969,287.803467 
	C316.761871,290.941986 317.179443,293.948639 320.252380,296.803894 
	C326.215973,302.345062 332.156464,307.912628 338.026672,313.552368 
	C348.093414,323.223938 358.089539,332.968964 368.150604,342.646484 
	C368.824921,343.295105 369.795471,343.635712 371.150726,344.685455 
M293.187256,270.709930 
	C296.215118,273.747101 299.129333,276.910004 302.306488,279.782013 
	C304.891327,282.118591 308.155548,282.275085 310.485901,279.773315 
	C312.766632,277.324829 313.087036,274.258026 310.091888,271.582916 
	C307.877625,269.605286 305.963837,267.292114 303.758728,265.303009 
	C301.603271,263.358704 299.353577,261.559875 296.029449,262.955811 
	C292.666107,264.368195 292.860992,267.118286 293.187256,270.709930 
z"/>
<path fill="#FFF" opacity="1.000000" stroke="none" 
	d="
M474.830292,554.342285 
	C469.700653,549.849915 464.748627,545.715393 459.954010,541.405701 
	C443.450806,526.571716 426.855042,511.833130 410.711182,496.616119 
	C408.575104,494.602661 408.744293,490.054871 408.040588,486.640656 
	C407.546631,484.243988 406.989227,481.747986 407.178101,479.352997 
	C407.387146,476.701691 407.624512,473.422607 409.212311,471.611908 
	C419.814392,459.521362 430.829102,447.793945 441.614929,435.862823 
	C452.362030,423.974457 462.998138,411.985718 474.157898,399.509949 
	C479.205292,403.945709 484.304260,408.340820 489.308929,412.840729 
	C505.791534,427.660828 522.239990,442.518829 538.701477,457.362366 
	C542.641052,460.914703 546.633362,464.410492 550.508301,468.031952 
	C558.185974,475.207489 562.311646,486.541565 551.612122,497.968140 
	C537.221191,513.336975 522.865051,528.759277 509.094574,544.678162 
	C503.489807,551.157410 497.658752,556.090942 489.049377,557.529419 
	C483.896606,558.390381 479.342590,557.483154 474.830292,554.342285 
M520.533875,497.977448 
	C524.650757,493.235199 528.610107,488.342926 532.936340,483.799957 
	C536.175110,480.398865 535.240845,477.526184 532.371948,474.927643 
	C524.279236,467.597443 515.932251,460.546082 507.898712,453.153076 
	C503.864502,449.440521 501.107727,450.874054 498.002960,454.312469 
	C486.898926,466.609741 475.659515,478.784668 464.482086,491.015778 
	C461.242340,494.560944 458.053131,498.152283 454.814850,501.698853 
	C451.624573,505.192871 450.279938,509.653015 454.969940,513.610168 
	C462.947388,520.341125 470.411011,527.677612 478.191803,534.646667 
	C481.362183,537.486328 484.429138,537.522949 487.545654,534.058167 
	C498.284180,522.119873 509.180023,510.323120 520.533875,497.977448 
z"/>
<path fill="#FFF" opacity="1.000000" stroke="none" 
	d="
M490.255859,256.200531 
	C485.875671,260.569458 481.846985,264.789001 477.599304,268.775116 
	C474.568542,271.619202 473.741852,274.624420 476.455200,277.900970 
	C478.857605,280.802124 482.196777,280.292358 485.797577,276.711365 
	C490.638702,271.896790 495.421112,267.023193 500.086975,262.317993 
	C505.299316,267.540710 510.420959,272.672546 516.148560,278.411560 
	C511.625885,282.777039 506.753113,287.420837 501.950348,292.135895 
	C498.387421,295.633728 497.925354,298.966736 500.500000,301.559235 
	C502.990265,304.066681 506.800842,303.653595 510.119232,300.383545 
	C514.863159,295.708771 519.537903,290.963684 524.079773,286.411438 
	C529.238586,291.575989 534.354370,296.697418 539.486633,301.835358 
	C530.027954,313.134399 518.638306,322.760559 503.079163,325.126740 
	C494.901184,326.370392 486.288422,326.754150 478.120270,325.664673 
	C458.552246,323.054657 440.991608,327.216644 424.968292,338.484314 
	C422.959747,339.896759 421.094299,341.512695 418.981445,343.177002 
	C412.272156,336.916351 405.620941,330.709930 397.985687,323.585266 
	C403.291351,318.603485 408.580933,313.874054 413.605164,308.877716 
	C434.262665,288.334961 454.843628,267.715271 475.442780,247.113876 
	C479.906616,242.649536 481.119598,242.631104 485.573730,247.104523 
	C487.335785,248.874207 489.302124,250.489410 490.774017,252.472855 
	C491.298096,253.179016 490.634918,254.766251 490.255859,256.200531 
M454.401917,308.097626 
	C459.095001,303.419617 463.794434,298.747925 468.478729,294.061157 
	C471.170288,291.368134 471.099640,288.189301 468.735443,285.717224 
	C466.370728,283.244629 463.382721,282.945557 460.576294,285.856201 
	C455.746460,290.865417 450.792419,295.758850 445.783539,300.589935 
	C442.864014,303.405823 441.653900,306.413666 444.918396,309.504456 
	C447.981750,312.404755 451.166656,311.714447 454.401917,308.097626 
z"/>
<path fill="#FFF" opacity="1.000000" stroke="none" 
	d="
M311.243408,546.301208 
	C323.612122,533.244995 335.751251,520.460999 347.853180,507.641876 
	C351.169586,504.128937 351.521057,500.480103 348.578735,498.152008 
	C345.192200,495.472443 342.298706,496.719574 339.549042,499.653595 
	C326.936523,513.112000 314.227142,526.479614 301.541901,539.891052 
	C296.499481,534.800537 291.471863,529.724976 286.032654,524.233826 
	C291.769684,518.577271 297.853729,513.018738 303.313538,506.902924 
	C304.780243,505.259979 305.242584,501.593750 304.469208,499.475952 
	C303.958099,498.076477 300.465210,497.482544 298.214203,497.140259 
	C297.303986,497.001862 296.012024,498.362335 295.122284,499.265808 
	C289.536896,504.937225 284.015930,510.672058 278.671936,516.181396 
	C273.037994,510.494873 267.920013,505.329132 262.565430,499.924591 
	C270.857269,492.175659 281.030762,486.202850 293.029358,485.248352 
	C302.954315,484.458801 313.041687,485.619019 323.052704,486.023956 
	C339.906128,486.705658 355.052521,481.878998 368.787842,471.995026 
	C375.568604,481.138977 387.348969,479.425262 396.304443,484.746094 
	C395.416321,485.781555 394.647675,486.806335 393.751526,487.703796 
	C371.159882,510.328522 348.521088,532.906433 325.988861,555.590149 
	C322.657227,558.944214 319.938812,558.865112 316.905762,555.428162 
	C315.146698,553.434875 313.033417,551.745850 311.355560,549.694153 
	C310.796112,549.009949 311.093903,547.624878 311.243408,546.301208 
z"/>
<path fill="#FFF" opacity="1.000000" stroke="none" 
	d="
M319.249268,446.249329 
	C324.799377,440.700317 330.200958,435.497284 335.348175,430.053772 
	C337.331696,427.956024 339.110474,427.519196 341.823761,428.439117 
	C348.765320,430.792603 355.781952,432.937469 362.822174,434.981079 
	C365.700531,435.816589 367.199066,436.998413 367.065308,440.397278 
	C366.863129,445.533936 367.719452,450.726532 367.328613,455.834320 
	C367.174530,457.847778 365.264526,460.214783 363.494629,461.540009 
	C348.559326,472.722717 332.240692,476.170166 313.429108,473.386078 
	C291.918030,470.202484 271.896484,475.689270 255.428375,490.997040 
	C255.068146,491.331940 254.661087,491.616455 253.200089,492.784637 
	C250.579391,489.805511 247.826401,486.765961 245.177200,483.638550 
	C242.637741,480.640625 244.111252,478.331360 246.461853,475.993103 
	C265.120331,457.432800 283.725739,438.819122 302.349365,420.223724 
	C310.666565,411.919159 318.988068,403.618866 327.588684,395.036163 
	C328.048401,400.886261 328.216858,406.302368 328.960968,411.638214 
	C329.814941,417.761749 327.748627,422.042908 323.148254,426.265778 
	C313.985748,434.676422 305.567780,443.893311 296.701324,452.634186 
	C293.892944,455.402740 292.882324,458.199707 295.769958,461.160645 
	C298.770966,464.237915 302.053040,463.387115 304.869629,460.633331 
	C309.632660,455.976379 314.294739,451.216156 319.249268,446.249329 
z"/>
<path fill="#FFF" opacity="1.000000" stroke="none" 
	d="
M549.751648,331.748779 
	C528.554993,352.958893 507.608337,373.918488 487.135559,394.403839 
	C483.154358,392.359497 479.461212,390.440765 475.741058,388.576019 
	C475.161346,388.285431 474.266510,387.896393 473.840820,388.133545 
	C466.342590,392.310089 463.621460,385.483673 459.502838,381.950439 
	C458.253632,380.878815 457.159576,379.626312 456.054932,378.517426 
	C458.640656,375.832001 461.140015,373.221191 463.656403,370.626923 
	C466.364410,367.835144 467.569824,364.516724 464.750092,361.467010 
	C462.027954,358.522827 458.746002,359.371033 456.120117,362.157501 
	C453.530212,364.905731 451.071075,367.777252 447.641357,371.617249 
	C441.274658,363.801086 435.548004,356.770660 429.533478,349.386871 
	C434.646729,344.551758 443.147461,340.443298 452.531830,338.027771 
	C462.089478,335.567566 471.547974,336.489380 481.320221,337.707642 
	C499.075928,339.921265 516.053162,336.264435 530.793335,325.537170 
	C537.032043,320.996887 542.531433,315.440765 548.880188,309.898193 
	C551.250183,312.416016 553.805542,315.211914 556.452148,317.918488 
	C558.887451,320.408966 558.848572,322.745331 556.357239,325.152649 
	C554.204651,327.232635 552.117676,329.380432 549.751648,331.748779 
z"/>
</svg>