<svg width="100%" viewBox="0 0 590 584" enable-background="new 0 0 590 584">
<path fill="#FFF" opacity="1.000000" stroke="none" 
	d="
M198.172760,300.675964 
	C194.159988,298.632507 190.467499,296.769012 186.854935,294.761749 
	C178.268478,289.990784 173.651810,282.812347 174.232254,272.826233 
	C174.773743,263.510254 179.702148,256.962585 188.062469,253.227127 
	C200.388031,247.719940 212.862091,242.545380 225.265457,237.211746 
	C227.062683,236.438889 228.818329,235.569305 231.852707,234.159119 
	C223.969208,230.735031 217.100388,227.736649 210.219086,224.767151 
	C203.569305,221.897552 197.011627,218.774216 190.228012,216.263504 
	C175.862213,210.946564 169.727020,195.371063 177.442886,182.183594 
	C177.663574,181.806412 177.610825,181.269211 177.798172,180.109756 
	C169.529709,180.109756 161.459763,180.115997 153.389816,180.108231 
	C142.439194,180.097687 139.197800,176.841797 139.194901,165.867401 
	C139.193497,160.534149 139.304184,155.198059 139.164963,149.868454 
	C139.036774,144.960632 141.244385,141.232727 145.549316,139.632568 
	C148.213638,138.642242 148.235458,137.339035 148.217667,135.301697 
	C148.178360,130.802094 148.124771,126.300186 148.224670,121.802498 
	C148.323257,117.363556 148.946136,113.233459 143.207947,110.960884 
	C141.145309,110.143997 139.609497,105.843918 139.371796,103.004692 
	C138.817612,96.384613 139.130356,89.685516 139.217346,83.020065 
	C139.302063,76.530350 143.661209,72.265388 150.284546,72.216019 
	C159.950546,72.143959 169.617462,72.194481 179.283997,72.194481 
	C262.116150,72.194466 344.948303,72.193832 427.780457,72.196495 
	C437.046082,72.196793 440.790497,75.909332 440.803375,85.090752 
	C440.811310,90.757332 440.737305,96.424995 440.826050,102.090195 
	C440.904419,107.093735 438.825867,110.575287 434.314606,112.864067 
	C433.174805,113.442352 431.941498,115.148712 431.904053,116.371994 
	C431.679993,123.689308 431.793030,131.016937 431.793030,138.650436 
	C438.990265,140.500671 441.259460,145.495773 440.865387,152.448685 
	C440.564087,157.764862 440.833710,163.112000 440.798798,168.445023 
	C440.750732,175.789429 436.920410,179.906296 429.526611,180.061600 
	C420.567596,180.249771 411.601593,180.106247 402.332275,180.106247 
	C403.556458,184.168579 405.211761,187.796555 405.679443,191.571640 
	C406.957153,201.885986 401.746796,210.796860 391.928284,215.192978 
	C379.297760,220.848129 366.524841,226.185089 353.816681,231.667023 
	C352.341278,232.303482 350.887573,232.990143 348.107666,234.250031 
	C355.780243,237.591232 362.269684,240.425201 368.765717,243.243942 
	C376.322479,246.522980 383.889648,249.777924 391.443787,253.062912 
	C400.104889,256.829285 405.199127,263.340912 405.742920,272.831512 
	C406.324829,282.986420 401.640778,290.281342 392.646698,294.916718 
	C377.080933,302.938995 361.526306,310.982941 345.983276,319.049133 
	C344.146210,320.002502 342.411530,321.153046 339.919220,322.634216 
	C352.191467,329.050232 363.708130,335.085052 375.239471,341.091675 
	C378.762054,342.926544 382.353149,344.630615 385.864197,346.486694 
	C398.321960,353.072418 402.389771,364.898682 396.731598,377.947510 
	C396.418915,378.668640 396.129211,379.399719 395.549438,380.801971 
	C403.425690,380.801971 410.874969,381.089508 418.294434,380.741211 
	C433.065918,380.047852 441.604675,390.515137 440.978912,403.472961 
	C440.240173,418.770447 440.810455,434.130829 440.803009,449.463959 
	C440.796387,463.147705 433.269043,470.725342 419.640503,470.784332 
	C418.168610,470.790680 416.696686,470.785187 415.304413,470.785187 
	C410.866882,500.679108 393.181152,517.879883 367.311127,517.799377 
	C342.515167,517.722229 325.091431,500.235504 320.927338,471.034241 
	C299.878448,471.034241 278.793427,471.034241 257.241608,471.034241 
	C256.755768,486.615112 250.532501,499.325806 238.088165,508.634125 
	C229.322708,515.190674 219.289307,518.355103 208.346741,517.735718 
	C195.955185,517.034363 185.311600,512.145874 176.698624,503.101227 
	C168.217499,494.195007 164.326172,483.347290 163.775803,471.333496 
	C159.799927,470.807129 156.122223,470.729095 152.683380,469.782867 
	C144.666611,467.577057 139.259705,460.397736 139.220306,452.145325 
	C139.136780,434.645966 139.127792,417.145569 139.224457,399.646332 
	C139.277374,390.063965 146.375992,382.082611 156.043228,381.276459 
	C163.488739,380.655579 171.008499,380.920624 178.495453,380.804749 
	C180.293213,380.776917 182.091782,380.800629 183.418228,380.800629 
	C182.431168,375.516449 180.548264,370.544983 180.802124,365.685150 
	C181.267258,356.780762 186.358383,350.389801 194.364471,346.309113 
	C208.046387,339.335510 221.674545,332.256256 235.315796,325.203064 
	C236.614334,324.531677 237.845734,323.730438 240.133224,322.388000 
	C225.789276,314.941772 212.159332,307.866180 198.172760,300.675964 
M287.561859,339.101257 
	C289.682312,339.320129 292.107605,338.942841 293.877319,339.847687 
	C318.848816,352.615875 343.746643,365.528809 368.623535,378.481110 
	C374.234863,381.402679 379.753510,381.890472 384.885284,377.896271 
	C393.093445,371.507538 391.737610,360.187561 382.000031,355.020599 
	C364.804688,345.896271 347.409454,337.148804 330.208557,328.034760 
	C328.091309,326.912903 325.108856,324.348419 325.279999,322.746674 
	C325.503693,320.653839 328.121704,318.199310 330.312561,317.030975 
	C349.689728,306.697723 369.191223,296.597198 388.678680,286.471558 
	C393.282227,284.079590 396.001282,280.662903 396.305389,275.247101 
	C396.681213,268.554504 393.788239,264.239685 387.772369,261.646851 
	C370.522461,254.212219 353.259369,246.804977 336.113922,239.135529 
	C334.185852,238.273056 331.979706,235.918854 331.760254,234.039474 
	C331.593964,232.615433 334.090668,230.256622 335.917206,229.341705 
	C341.205048,226.693008 346.758575,224.576660 352.197113,222.226593 
	C364.437347,216.937378 376.735199,211.774704 388.880341,206.275055 
	C394.879944,203.558273 397.171783,198.601303 396.171173,191.468994 
	C395.397888,185.957138 391.743408,182.174530 386.606812,181.356232 
	C382.812347,180.751740 378.339325,181.602997 374.724030,183.125031 
	C348.007355,194.372757 321.470673,206.048111 294.746857,217.278381 
	C292.051758,218.410950 288.211395,218.304337 285.387512,217.345062 
	C278.864441,215.129211 272.642120,212.029785 266.292847,209.300247 
	C245.402100,200.319427 224.536392,191.279572 203.606262,182.391495 
	C192.078033,177.496002 182.409912,184.561432 183.821716,196.778961 
	C184.550034,203.081665 189.323776,205.800674 194.491974,208.016373 
	C210.678864,214.956024 226.913773,221.787567 243.002548,228.947601 
	C245.218948,229.933975 246.714401,232.540283 248.543640,234.396622 
	C246.748993,236.141190 245.257721,238.568161 243.111618,239.522263 
	C226.104279,247.083496 208.957230,254.329803 191.888107,261.753326 
	C186.988693,263.884125 183.984024,267.441315 183.685028,273.106720 
	C183.361282,279.241669 185.669876,283.572662 191.198990,286.400208 
	C201.928650,291.887268 212.558456,297.569214 223.252014,303.127380 
	C232.471283,307.919220 241.788330,312.529327 250.901016,317.514343 
	C252.688385,318.492065 254.839371,320.829926 254.820480,322.518127 
	C254.801407,324.224213 252.378510,325.983826 250.839859,327.554657 
	C250.186172,328.221954 249.094254,328.452209 248.215424,328.907928 
	C231.372147,337.643036 214.474045,346.274933 197.714996,355.168854 
	C190.128860,359.194733 187.883041,366.533905 191.528488,373.571350 
	C195.044434,380.358795 203.023529,382.788696 210.316589,379.023468 
	C235.848007,365.842072 261.330872,352.566620 287.561859,339.101257 
M245.335312,440.175659 
	C249.337662,446.911316 253.340012,453.646942 257.897583,461.317017 
	C277.497894,461.317017 298.643341,461.377136 319.785797,461.156342 
	C320.960754,461.144104 322.721436,458.997131 323.181122,457.523071 
	C329.135254,438.431213 346.825836,425.007019 367.090424,424.426666 
	C386.167572,423.880371 405.536804,436.501251 411.334473,454.560272 
	C413.262909,460.567108 415.942139,461.806854 421.380951,461.389679 
	C427.745911,460.901489 431.243256,457.888641 431.279816,451.450287 
	C431.377289,434.287872 431.365540,417.124176 431.266998,399.961700 
	C431.235046,394.396454 428.078644,391.047485 422.609650,390.339020 
	C420.968018,390.126343 419.285461,390.192841 417.621674,390.192719 
	C342.970184,390.186676 268.318726,390.187683 193.667236,390.187378 
	C182.335953,390.187347 171.004089,390.114960 159.673630,390.210724 
	C152.927734,390.267761 148.858307,393.476440 148.809448,399.153900 
	C148.655991,416.980896 148.677521,434.810577 148.801910,452.638031 
	C148.836136,457.542877 152.459900,460.989227 157.294754,461.253387 
	C159.763367,461.388275 162.245422,461.277039 164.629852,461.277039 
	C175.462112,421.810242 220.776047,413.354034 245.335312,440.175659 
M412.499359,148.135010 
	C324.712036,148.135010 236.924683,148.135010 148.985077,148.135010 
	C148.985077,155.831100 148.985077,163.044983 148.985077,170.310394 
	C243.214127,170.310394 337.100281,170.310394 431.112610,170.310394 
	C431.112610,162.817825 431.112610,155.715454 431.112610,148.135010 
	C425.083557,148.135010 419.291138,148.135010 412.499359,148.135010 
M307.500214,81.673424 
	C254.742554,81.673424 201.984894,81.673424 148.945221,81.673424 
	C148.945221,89.330170 148.945221,96.551926 148.945221,103.994171 
	C243.068085,103.994171 336.921722,103.994171 430.885345,103.994171 
	C430.885345,96.455078 430.885345,89.120003 430.885345,81.673409 
	C389.783447,81.673409 349.141846,81.673409 307.500214,81.673424 
M220.499878,138.772614 
	C279.392059,138.772614 338.284241,138.772614 397.317810,138.772614 
	C397.317810,130.129654 397.317810,122.079842 397.317810,114.000824 
	C325.522552,114.000824 254.050232,114.000824 182.669312,114.000824 
	C182.669312,122.427887 182.669312,130.475647 182.669312,138.772614 
	C195.214249,138.772614 207.357040,138.772614 220.499878,138.772614 
M217.509796,434.721558 
	C212.425201,434.754578 207.208176,434.056396 202.279312,434.949188 
	C182.567352,438.519684 168.993256,460.650208 174.245819,479.999512 
	C179.322311,498.700134 195.859314,510.138397 215.025055,508.205627 
	C232.568985,506.436401 246.587677,491.415894 247.753815,473.137970 
	C248.907562,455.054626 236.777893,439.228119 217.509796,434.721558 
M400.268250,489.603210 
	C404.934296,481.514648 406.380096,472.922058 404.373596,463.765625 
	C401.128540,448.956726 392.082703,439.264740 377.681519,435.230835 
	C363.349274,431.216187 350.580078,435.139069 340.590454,446.052673 
	C330.451660,457.129272 327.873230,470.318298 333.230316,484.416321 
	C338.503937,498.294586 349.012665,506.487000 363.709839,508.072113 
	C379.229828,509.745911 391.503754,503.559326 400.268250,489.603210 
M273.379120,356.782776 
	C258.850311,364.323578 244.321487,371.864380 229.792664,379.405182 
	C229.998657,379.769684 230.204636,380.134216 230.410614,380.498749 
	C270.177490,380.498749 309.944336,380.498749 349.711182,380.498749 
	C348.646454,378.776672 347.288116,377.781616 345.810730,377.016388 
	C332.347778,370.043762 318.267731,364.040680 305.564026,355.890167 
	C294.186737,348.590637 284.421387,348.339783 273.379120,356.782776 
M232.171036,184.372925 
	C250.760696,192.396240 269.331329,200.464584 287.978455,208.352051 
	C289.376465,208.943390 291.513916,208.697144 292.982391,208.073944 
	C312.844879,199.644638 332.653259,191.087723 352.457001,182.520706 
	C353.332947,182.141785 354.036591,181.364532 355.400299,180.335175 
	C311.467621,180.335175 268.478394,180.335175 225.489166,180.335175 
	C225.358673,180.641220 225.228180,180.947250 225.097687,181.253296 
	C227.205811,182.234863 229.313934,183.216415 232.171036,184.372925 
M422.505615,123.542786 
	C422.505615,120.414810 422.505615,117.286835 422.505615,113.993332 
	C417.086792,113.993332 412.069519,113.993332 406.968567,113.993332 
	C406.968567,122.231979 406.968567,130.139557 406.968567,138.262878 
	C412.185303,138.262878 417.202515,138.262878 422.505585,138.262878 
	C422.505585,133.434204 422.505585,128.977631 422.505615,123.542786 
M172.936676,120.555183 
	C172.936676,118.317383 172.936676,116.079582 172.936676,113.887505 
	C167.451645,113.887505 162.682480,113.887505 157.782349,113.887505 
	C157.782349,122.158981 157.782349,130.199142 157.782349,138.288971 
	C162.964294,138.288971 167.845444,138.288971 172.936676,138.288971 
	C172.936676,132.473022 172.936676,127.009079 172.936676,120.555183 
z"/>
<path fill="#FFF" opacity="1.000000" stroke="none" 
	d="
M336.289185,268.858276 
	C339.779114,270.806183 344.716827,270.659027 345.116394,275.490997 
	C345.535431,280.558502 340.535217,281.030487 337.437683,282.676819 
	C323.023590,290.337830 308.528137,297.854858 293.890594,305.076355 
	C291.781189,306.117035 288.287262,306.186951 286.204132,305.153625 
	C270.257019,297.243225 254.460800,289.023102 238.741180,280.666962 
	C236.999130,279.740936 234.930161,277.300629 235.012634,275.663300 
	C235.097122,273.985992 237.333572,271.744019 239.155197,270.932953 
	C254.795242,263.969055 270.511627,257.169098 286.329926,250.621582 
	C288.464966,249.737854 291.597961,249.779922 293.749298,250.661362 
	C307.903473,256.460449 321.915161,262.607330 336.289185,268.858276 
M264.559326,269.853180 
	C260.157501,271.866882 255.755646,273.880585 250.465210,276.300781 
	C258.639648,280.571259 266.318390,283.542084 272.791656,288.191254 
	C284.579681,296.657471 295.355469,296.667755 307.150879,288.202606 
	C313.671112,283.523254 321.394806,280.520752 329.044342,276.517303 
	C327.814575,275.617279 327.343292,275.122040 326.765808,274.871918 
	C315.279877,269.896942 303.819977,264.856842 292.240265,260.109406 
	C290.692719,259.474915 288.354614,259.924561 286.675934,260.600616 
	C279.496155,263.492096 272.426361,266.656586 264.559326,269.853180 
z"/>
<path fill="#FFF" opacity="1.000000" stroke="none" 
	d="
M211.754852,448.367493 
	C222.188477,449.622192 229.220627,454.951050 232.230072,464.504364 
	C234.708282,472.371368 233.112381,479.943756 227.503952,486.271118 
	C220.990967,493.618896 210.423264,495.902374 201.710953,492.037445 
	C192.513672,487.957367 186.810150,478.643311 187.850464,469.402771 
	C189.036896,458.864227 195.845673,451.119843 205.907562,448.980713 
	C207.681946,448.603485 209.524490,448.546997 211.754852,448.367493 
M208.802979,484.297424 
	C216.759766,485.613129 223.305344,479.609314 223.913773,472.190887 
	C224.470749,465.399963 219.430222,458.794495 212.942032,457.788605 
	C205.792709,456.680206 199.190674,461.076935 197.677292,467.954346 
	C195.909592,475.987549 199.589966,481.816223 208.802979,484.297424 
z"/>
<path fill="#FFF" opacity="1.000000" stroke="none" 
	d="
M387.874146,460.217072 
	C392.914825,470.597137 391.302460,480.246155 383.479126,487.692566 
	C376.406586,494.424316 366.015625,495.807922 357.361420,491.170319 
	C348.636505,486.494781 343.786804,476.822479 345.490631,467.495270 
	C347.377228,457.167297 355.020660,449.607788 365.636200,448.559906 
	C375.184723,447.617432 382.652740,451.635742 387.874146,460.217072 
M360.551697,482.257141 
	C365.565063,485.359039 370.637634,485.362335 375.531189,482.161621 
	C380.572235,478.864380 382.112091,473.803772 381.044037,468.205750 
	C380.080597,463.155914 376.680115,459.769806 371.728546,458.181030 
	C366.121185,456.381897 359.295898,459.192596 356.299408,464.431335 
	C353.020477,470.163849 354.285492,476.331268 360.551697,482.257141 
z"/>
</svg>