<svg version="1.1" id="Layer_1" x="0px" y="0px"
	 width="100%" viewBox="0 0 1200 960" enable-background="new 0 0 1200 960" xml:space="preserve">
<path fill="#0EA9E3" opacity="1.000000" stroke="none" 
	d="
M489.000000,675.846497 
	C460.021545,675.846436 431.543091,675.846436 402.442444,675.846436 
	C402.330322,673.673340 402.145325,671.757080 402.144989,669.840820 
	C402.130280,587.535278 402.171844,505.229645 402.026154,422.924316 
	C402.018005,418.312500 403.544983,415.290039 406.756226,412.168427 
	C438.994263,380.829773 471.083740,349.338287 503.220917,317.895813 
	C513.102966,308.227325 522.924500,298.493988 532.975037,289.003448 
	C534.587830,287.480499 537.259460,286.279846 539.443787,286.276367 
	C624.914673,286.140198 710.385925,286.158844 795.857056,286.172791 
	C797.313354,286.173035 798.769714,286.363556 800.508972,286.485016 
	C800.595520,288.194733 800.733337,289.647491 800.733521,291.100250 
	C800.742554,373.905640 800.709412,456.711060 800.832031,539.516296 
	C800.838013,543.550598 799.568359,546.184814 796.727112,548.956787 
	C754.405579,590.246216 712.238098,631.693604 669.871155,672.936157 
	C668.029175,674.729187 664.621826,675.718872 661.940002,675.726196 
	C604.460327,675.883118 546.980103,675.846069 489.000000,675.846497 
M706.797852,576.818237 
	C707.192749,575.982239 707.928711,575.147644 707.932251,574.309998 
	C708.002319,557.656372 708.026489,541.002197 707.903381,524.349304 
	C707.895142,523.234680 706.641296,522.129333 705.225708,520.692383 
	C704.264221,520.474854 703.307800,520.094360 702.340576,520.064697 
	C690.554016,519.702820 678.767212,519.198364 666.977783,519.111694 
	C646.321777,518.959778 625.645081,518.548462 605.014465,519.289001 
	C594.242737,519.675720 584.499939,517.335632 575.897156,511.701904 
	C562.482666,502.917114 557.228760,489.238037 555.933044,473.730316 
	C555.273865,465.840729 557.277039,458.621155 559.468384,451.038055 
	C564.112976,434.965607 582.081726,422.062103 597.961060,421.989227 
	C631.944580,421.833252 665.929321,421.943848 699.913574,421.930298 
	C705.827026,421.927948 707.932129,419.813171 707.939880,413.879272 
	C707.958923,399.386017 707.952393,384.892700 707.944641,370.399414 
	C707.941284,364.244263 705.802612,362.063568 699.699219,362.062012 
	C665.881531,362.053497 632.050598,361.522766 598.253540,362.358398 
	C586.588135,362.646820 574.864502,365.783051 563.429260,368.658997 
	C552.805237,371.330933 543.293823,377.086823 535.095276,384.214569 
	C527.317261,390.976715 519.705444,398.309814 513.640991,406.580048 
	C502.703613,421.495667 497.921600,439.238800 496.356567,457.308014 
	C494.845032,474.759369 495.862610,492.260620 501.798981,509.292053 
	C509.710266,531.989380 522.891663,549.860352 543.531433,562.749512 
	C560.276733,573.206604 578.333984,578.416443 597.586060,578.772034 
	C631.558716,579.399658 665.551453,578.984131 699.535278,578.865295 
	C701.693970,578.857788 703.848450,577.646423 706.797852,576.818237 
z"/>
<path fill="#3BB0DC" opacity="1.000000" stroke="none" 
	d="
M706.004883,576.995117 
	C703.848450,577.646423 701.693970,578.857788 699.535278,578.865295 
	C665.551453,578.984131 631.558716,579.399658 597.586060,578.772034 
	C578.333984,578.416443 560.276733,573.206604 543.531433,562.749512 
	C522.891663,549.860352 509.710266,531.989380 501.798981,509.292053 
	C495.862610,492.260620 494.845032,474.759369 496.356567,457.308014 
	C497.921600,439.238800 502.703613,421.495667 513.640991,406.580048 
	C519.705444,398.309814 527.317261,390.976715 535.095276,384.214569 
	C543.293823,377.086823 552.805237,371.330933 563.429260,368.658997 
	C574.864502,365.783051 586.588135,362.646820 598.253540,362.358398 
	C632.050598,361.522766 665.881531,362.053497 699.699219,362.062012 
	C705.802612,362.063568 707.941284,364.244263 707.944641,370.399414 
	C707.952393,384.892700 707.958923,399.386017 707.939880,413.879272 
	C707.932129,419.813171 705.827026,421.927948 699.913574,421.930298 
	C665.929321,421.943848 631.944580,421.833252 597.961060,421.989227 
	C582.081726,422.062103 564.112976,434.965607 559.468384,451.038055 
	C557.277039,458.621155 555.273865,465.840729 555.933044,473.730316 
	C557.228760,489.238037 562.482666,502.917114 575.897156,511.701904 
	C584.499939,517.335632 594.242737,519.675720 605.014465,519.289001 
	C625.645081,518.548462 646.321777,518.959778 666.977783,519.111694 
	C678.767212,519.198364 690.554016,519.702820 702.340576,520.064697 
	C703.307800,520.094360 704.264221,520.474854 705.609009,521.322449 
	C705.996460,540.300049 706.000671,558.647583 706.004883,576.995117 
M597.614990,576.338562 
	C631.441284,576.350464 665.268127,576.273132 699.093201,576.479553 
	C703.671143,576.507446 704.670288,574.968384 704.605835,570.748352 
	C704.386902,556.421387 704.323242,542.084473 704.637939,527.761047 
	C704.747192,522.786987 702.995850,521.749573 698.357666,521.776611 
	C666.365356,521.963318 634.371277,521.929932 602.378052,521.851379 
	C578.966919,521.793945 561.207031,508.570099 555.577820,485.919708 
	C550.540466,465.651337 553.585632,446.772522 569.316040,431.607697 
	C578.698242,422.562836 590.551636,419.492615 603.271790,419.461609 
	C635.264954,419.383636 667.258667,419.336304 699.251343,419.471588 
	C703.375183,419.489014 704.695374,418.334076 704.625671,414.149353 
	C704.389771,399.989471 704.535278,385.823334 704.525269,371.659576 
	C704.520386,364.798462 704.510620,364.778351 697.849609,364.777985 
	C666.356140,364.776154 634.860962,364.609558 603.370239,364.907898 
	C594.770203,364.989349 586.030273,365.733093 577.618103,367.458252 
	C546.748779,373.788879 523.429504,390.501282 509.505249,419.224609 
	C498.063873,442.826080 495.960938,467.712585 500.339966,493.274109 
	C503.792816,513.429016 511.874390,531.462158 526.272400,546.289612 
	C545.518738,566.109985 569.660339,574.569458 597.614990,576.338562 
z"/>
<path fill="#0C9CD2" opacity="1.000000" stroke="none" 
	d="
M706.401367,576.906677 
	C706.000671,558.647583 705.996460,540.300049 705.979492,521.486084 
	C706.641296,522.129333 707.895142,523.234680 707.903381,524.349304 
	C708.026489,541.002197 708.002319,557.656372 707.932251,574.309998 
	C707.928711,575.147644 707.192749,575.982239 706.401367,576.906677 
z"/>
<path fill="#FBFEFE" opacity="1.000000" stroke="none" 
	d="
M597.133545,576.307922 
	C569.660339,574.569458 545.518738,566.109985 526.272400,546.289612 
	C511.874390,531.462158 503.792816,513.429016 500.339966,493.274109 
	C495.960938,467.712585 498.063873,442.826080 509.505249,419.224609 
	C523.429504,390.501282 546.748779,373.788879 577.618103,367.458252 
	C586.030273,365.733093 594.770203,364.989349 603.370239,364.907898 
	C634.860962,364.609558 666.356140,364.776154 697.849609,364.777985 
	C704.510620,364.778351 704.520386,364.798462 704.525269,371.659576 
	C704.535278,385.823334 704.389771,399.989471 704.625671,414.149353 
	C704.695374,418.334076 703.375183,419.489014 699.251343,419.471588 
	C667.258667,419.336304 635.264954,419.383636 603.271790,419.461609 
	C590.551636,419.492615 578.698242,422.562836 569.316040,431.607697 
	C553.585632,446.772522 550.540466,465.651337 555.577820,485.919708 
	C561.207031,508.570099 578.966919,521.793945 602.378052,521.851379 
	C634.371277,521.929932 666.365356,521.963318 698.357666,521.776611 
	C702.995850,521.749573 704.747192,522.786987 704.637939,527.761047 
	C704.323242,542.084473 704.386902,556.421387 704.605835,570.748352 
	C704.670288,574.968384 703.671143,576.507446 699.093201,576.479553 
	C665.268127,576.273132 631.441284,576.350464 597.133545,576.307922 
z"/>
</svg>